<?xml version="1.0" encoding="UTF-8"?>
<svg id="_图层_1" data-name="图层 1" xmlns="http://www.w3.org/2000/svg" xmlns:xlink="http://www.w3.org/1999/xlink" viewBox="0 0 500 500">
  <defs>
    <style>
      .cls-1 {
        fill: url(#_未命名的渐变_117);
      }

      .cls-1, .cls-2 {
        stroke-width: 0px;
      }

      .cls-2 {
        fill: url(#_未命名的渐变_132);
      }
    </style>
    <linearGradient id="_未命名的渐变_117" data-name="未命名的渐变 117" x1="68.23" y1="172.46" x2="470.06" y2="277.89" gradientUnits="userSpaceOnUse">
      <stop offset="0" stop-color="#ebdad5"/>
      <stop offset=".43" stop-color="#edded3"/>
      <stop offset=".91" stop-color="#f4ebcf"/>
      <stop offset="1" stop-color="#f6efcf"/>
    </linearGradient>
    <linearGradient id="_未命名的渐变_132" data-name="未命名的渐变 132" x1="326.68" y1="431.87" x2="164.25" y2="292.08" gradientUnits="userSpaceOnUse">
      <stop offset="0" stop-color="#d9cdc8"/>
      <stop offset=".47" stop-color="#d8cac5"/>
      <stop offset=".8" stop-color="#d7c3bb"/>
      <stop offset="1" stop-color="#d6bcb2"/>
    </linearGradient>
  </defs>
  <path class="cls-1" d="m440.98,55.55c-1.78-9.89-15.02-25.48-39.41-37.62C343.85-10.16,198.84-19,111.14,96.98c-3.65,4.83-7.76,9.44-11.51,14.46-16.63,22.23-48.25,85.72-39.69,161.09,6.09,53.72,32.6,113.46,99.43,168.61-42.7-84.61,27.59-180.02,99.06-221.26,17.87-23.84,41.36-45.88,70.26-64.96h.01c3.87-2.57,7.87-5.08,11.95-7.53,30.58-18.15,40.02-21.98,79.72-51.64,18.59-13.89,22.78-27.35,20.62-40.21Z"/>
  <path class="cls-2" d="m276.98,499.79c-20.1-4.32-39.86-11.06-58.86-20.24-12.76-6.16-25.19-13.42-37.13-21.82l-6.5-4.72c-.81-.6-1.61-1.2-2.42-1.82-4.38-3.33-8.61-6.68-12.69-10.04-42.7-84.61,27.59-180.02,99.06-221.26-27.75,37.01-42,78.32-42.07,119.48-.09,51.79,22.23,103.33,68.24,145.76,6.4,5.89.87,16.5-7.63,14.66Z"/>
</svg>