<?xml version="1.0" encoding="UTF-8"?><svg id="b" xmlns="http://www.w3.org/2000/svg" width="500" height="500" viewBox="0 0 500 500"><defs><style>.c{fill:currentColor;stroke-width:0px;}</style></defs><path class="c" d="m420.37,95.76c-39.7,29.65-49.14,33.48-79.72,51.63-4.08,2.46-8.07,4.97-11.95,7.55h-.01c-.61.39-1.21.79-1.81,1.2l-78.94,45.55c-19.69,11.36-39.06,26.39-56.03,43.46-18.21,18.31-33.12,38.22-44.34,59.19-12.55,23.48-19.86,47.26-21.72,70.67-.98,12.41-.42,24.57,1.67,36.41-43.74-46.43-62.57-94.7-67.58-138.89-8.56-75.37,23.06-138.86,39.69-161.09,3.75-5.02,7.86-9.63,11.51-14.46,13.06-17.27,27.38-31.77,42.51-43.85,3.02-2.41,6.08-4.73,9.16-6.96,2.06-1.48,4.12-2.93,6.2-4.33,5.2-3.5,10.47-6.75,15.79-9.75,2.13-1.2,4.27-2.37,6.41-3.49C230.88,7.79,273.06,0,310.58,0c20.96,0,40.47,2.43,57.28,6.38,2.8.66,5.53,1.36,8.17,2.1,1.76.49,3.49,1,5.18,1.53,1.69.52,3.34,1.07,4.95,1.62.81.28,1.6.56,2.39.84,1.57.57,3.1,1.15,4.59,1.75,2.99,1.19,5.8,2.43,8.43,3.71,24.39,12.14,37.63,27.73,39.41,37.62,2.16,12.86-2.02,26.31-20.61,40.21Zm-135.76,389.37c-46.02-42.44-68.33-93.97-68.24-145.76,0-1.08.01-2.15.04-3.23,0-.21,0-.42.01-.63.02-1.03.05-2.06.1-3.09.01-.25.02-.51.03-.77.04-.85.08-1.69.13-2.53.01-.21.02-.42.04-.64.05-.87.11-1.75.18-2.62.02-.25.04-.51.06-.76.07-.86.14-1.73.23-2.59.1-1.05.21-2.1.33-3.16.04-.4.09-.8.14-1.2.02-.21.05-.42.08-.64.08-.74.18-1.47.28-2.21.05-.33.09-.67.14-1,.14-.97.28-1.95.44-2.92.14-.95.3-1.9.47-2.85.06-.32.11-.65.17-.98.19-1.05.38-2.09.59-3.14.46-2.32.96-4.63,1.51-6.94.03-.15.07-.29.1-.43.24-1.01.49-2.03.75-3.04.29-1.15.6-2.3.93-3.45.31-1.15.64-2.3.98-3.45.68-2.3,1.4-4.59,2.18-6.87.38-1.14.78-2.28,1.19-3.42.37-1.04.75-2.08,1.14-3.12.07-.19.14-.38.22-.57.39-1.05.8-2.09,1.22-3.13.42-1.06.85-2.12,1.29-3.18.53-1.24,1.06-2.48,1.61-3.72.4-.92.82-1.84,1.24-2.75.14-.32.29-.63.44-.95.45-.97.91-1.93,1.37-2.88.43-.89.86-1.77,1.31-2.65.16-.33.32-.65.49-.97.51-1.01,1.03-2.02,1.57-3.03.58-1.1,1.18-2.21,1.79-3.31.6-1.1,1.22-2.19,1.85-3.29.41-.71.82-1.43,1.24-2.14,1.59-2.7,3.24-5.38,4.97-8.04.52-.8,1.04-1.59,1.56-2.38.09-.15.19-.29.29-.44-33.21,21.57-62.84,53.18-80.57,86.34-16.05,30.01-30.23,75.58-6.66,122.29l4.92,9.76c1.09.84,2.19,1.69,3.3,2.53.81.62,1.61,1.23,2.42,1.83l6.5,4.71c11.95,8.4,24.38,15.67,37.13,21.83,19.01,9.18,38.77,15.92,58.87,20.24.66.14,1.3.21,1.93.21,7.36,0,11.6-9.44,5.7-14.87Z"/></svg>